<svg width="12" height="12" viewBox="0 0 12 12" fill="none" xmlns="http://www.w3.org/2000/svg">
<g clip-path="url(#clip0_5005_13137)">
<path fill-rule="evenodd" clip-rule="evenodd" d="M11.0722 0.0576267C11.1266 0.0912225 11.1714 0.138136 11.2025 0.193919C11.2336 0.249702 11.25 0.312506 11.25 0.376377V11.6264C11.25 11.7258 11.2105 11.8212 11.1402 11.8915C11.0698 11.9619 10.9745 12.0014 10.875 12.0014H8.625C8.52554 12.0014 8.43016 11.9619 8.35983 11.8915C8.28951 11.8212 8.25 11.7258 8.25 11.6264V10.5014H7.5V11.6264C7.5 11.7258 7.46049 11.8212 7.39017 11.8915C7.31984 11.9619 7.22446 12.0014 7.125 12.0014H0.375C0.275544 12.0014 0.180161 11.9619 0.109835 11.8915C0.0395088 11.8212 0 11.7258 0 11.6264V7.50138C5.97351e-05 7.4227 0.0248611 7.34604 0.0708937 7.28224C0.116926 7.21844 0.181859 7.17074 0.2565 7.14588L4.5 5.73138V3.37638C4.5 3.30679 4.51937 3.23858 4.55592 3.17937C4.59248 3.12017 4.64479 3.0723 4.707 3.04113L10.707 0.0411267C10.7642 0.012481 10.8278 -0.00104121 10.8918 0.00184695C10.9557 0.00473512 11.0178 0.0239376 11.0722 0.0576267V0.0576267ZM4.5 6.52188L0.75 7.77138V11.2514H4.5V6.52188ZM5.25 11.2514H6.75V10.1264C6.75 10.0269 6.78951 9.93154 6.85983 9.86121C6.93016 9.79088 7.02554 9.75138 7.125 9.75138H8.625C8.72446 9.75138 8.81984 9.79088 8.89017 9.86121C8.96049 9.93154 9 10.0269 9 10.1264V11.2514H10.5V0.983127L5.25 3.60813V11.2514Z" fill="#8750F6"/>
<path d="M1.5 8.25H2.25V9H1.5V8.25ZM3 8.25H3.75V9H3V8.25ZM1.5 9.75H2.25V10.5H1.5V9.75ZM3 9.75H3.75V10.5H3V9.75ZM6 6.75H6.75V7.5H6V6.75ZM7.5 6.75H8.25V7.5H7.5V6.75ZM6 8.25H6.75V9H6V8.25ZM7.5 8.25H8.25V9H7.5V8.25ZM9 6.75H9.75V7.5H9V6.75ZM9 8.25H9.75V9H9V8.25ZM6 5.25H6.75V6H6V5.25ZM7.5 5.25H8.25V6H7.5V5.25ZM9 5.25H9.75V6H9V5.25ZM6 3.75H6.75V4.5H6V3.75ZM7.5 3.75H8.25V4.5H7.5V3.75ZM9 3.75H9.75V4.5H9V3.75ZM9 2.25H9.75V3H9V2.25Z" fill="black"/>
</g>
<defs>
<clipPath id="clip0_5005_13137">
<rect width="12" height="12" fill="white"/>
</clipPath>
</defs>
</svg>
