<svg width="18" height="18" viewBox="0 0 18 18" fill="none" xmlns="http://www.w3.org/2000/svg">
<g clip-path="url(#clip0_5004_11643)">
<path fill-rule="evenodd" clip-rule="evenodd" d="M9 16.875C11.0886 16.875 13.0916 16.0453 14.5685 14.5685C16.0453 13.0916 16.875 11.0886 16.875 9C16.875 6.91142 16.0453 4.90838 14.5685 3.43153C13.0916 1.95469 11.0886 1.125 9 1.125C6.91142 1.125 4.90838 1.95469 3.43153 3.43153C1.95469 4.90838 1.125 6.91142 1.125 9C1.125 11.0886 1.95469 13.0916 3.43153 14.5685C4.90838 16.0453 6.91142 16.875 9 16.875V16.875ZM9 18C11.3869 18 13.6761 17.0518 15.364 15.364C17.0518 13.6761 18 11.3869 18 9C18 6.61305 17.0518 4.32387 15.364 2.63604C13.6761 0.948212 11.3869 0 9 0C6.61305 0 4.32387 0.948212 2.63604 2.63604C0.948212 4.32387 0 6.61305 0 9C0 11.3869 0.948212 13.6761 2.63604 15.364C4.32387 17.0518 6.61305 18 9 18V18Z" fill="#1F9854"/>
<path fill-rule="evenodd" clip-rule="evenodd" d="M12.341 5.5912C12.4984 5.43513 12.711 5.34729 12.9327 5.34668C13.1544 5.34607 13.3674 5.43273 13.5257 5.58793C13.684 5.74313 13.7748 5.95439 13.7786 6.17605C13.7824 6.39771 13.6988 6.61195 13.5459 6.77245L9.05488 12.3862C8.97769 12.4693 8.88453 12.5361 8.78097 12.5824C8.67741 12.6287 8.56558 12.6536 8.45216 12.6557C8.33874 12.6578 8.22605 12.637 8.12085 12.5946C8.01565 12.5521 7.92009 12.4889 7.83988 12.4087L4.86425 9.43195C4.78135 9.3547 4.71486 9.26155 4.66875 9.15805C4.62263 9.05456 4.59783 8.94283 4.59583 8.82954C4.59384 8.71625 4.61468 8.60371 4.65711 8.49865C4.69955 8.39359 4.76271 8.29815 4.84283 8.21803C4.92295 8.13791 5.01839 8.07475 5.12345 8.03231C5.22851 7.98988 5.34105 7.96903 5.45434 7.97103C5.56763 7.97303 5.67936 7.99783 5.78286 8.04395C5.88635 8.09006 5.97951 8.15655 6.05675 8.23945L8.4125 10.5941L12.3196 5.61595C12.3266 5.60723 12.3341 5.59897 12.3421 5.5912H12.341Z" fill="#1F9854"/>
</g>
<defs>
<clipPath id="clip0_5004_11643">
<rect width="18" height="18" fill="white"/>
</clipPath>
</defs>
</svg>
