<svg width="20" height="20" viewBox="0 0 20 20" fill="none" xmlns="http://www.w3.org/2000/svg">
<path fill-rule="evenodd" clip-rule="evenodd" d="M17.3163 4.5574C17.3745 4.61545 17.4207 4.68442 17.4522 4.76035C17.4837 4.83629 17.5 4.91769 17.5 4.9999C17.5 5.08211 17.4837 5.16351 17.4522 5.23944C17.4207 5.31537 17.3745 5.38434 17.3163 5.4424L8.56634 14.1924C8.50828 14.2506 8.43931 14.2968 8.36338 14.3283C8.28745 14.3598 8.20604 14.376 8.12384 14.376C8.04163 14.376 7.96023 14.3598 7.88429 14.3283C7.80836 14.2968 7.73939 14.2506 7.68134 14.1924L3.30634 9.8174C3.18898 9.70004 3.12305 9.54087 3.12305 9.3749C3.12305 9.20893 3.18898 9.04975 3.30634 8.9324C3.42369 8.81504 3.58287 8.74911 3.74884 8.74911C3.91481 8.74911 4.07398 8.81504 4.19134 8.9324L8.12384 12.8661L16.4313 4.5574C16.4894 4.49919 16.5584 4.45301 16.6343 4.42151C16.7102 4.39 16.7916 4.37378 16.8738 4.37378C16.956 4.37378 17.0374 4.39 17.1134 4.42151C17.1893 4.45301 17.2583 4.49919 17.3163 4.5574V4.5574Z" fill="white"/>
</svg>
