<svg width="24" height="24" viewBox="0 0 24 24" fill="none" xmlns="http://www.w3.org/2000/svg">
<path fill-rule="evenodd" clip-rule="evenodd" d="M12.532 17.0311C12.4623 17.101 12.3796 17.1564 12.2885 17.1942C12.1973 17.232 12.0997 17.2515 12.001 17.2515C11.9024 17.2515 11.8047 17.232 11.7136 17.1942C11.6224 17.1564 11.5397 17.101 11.47 17.0311L2.47001 8.03113C2.32918 7.8903 2.25006 7.69929 2.25006 7.50013C2.25006 7.30096 2.32918 7.10996 2.47001 6.96913C2.61084 6.8283 2.80184 6.74918 3.00101 6.74918C3.20017 6.74918 3.39118 6.8283 3.53201 6.96913L12.001 15.4396L20.47 6.96913C20.6108 6.8283 20.8018 6.74918 21.001 6.74918C21.2002 6.74918 21.3912 6.8283 21.532 6.96913C21.6728 7.10996 21.752 7.30096 21.752 7.50013C21.752 7.69929 21.6728 7.8903 21.532 8.03113L12.532 17.0311Z" fill="#27214D"/>
</svg>
