<svg width="20" height="20" viewBox="0 0 20 20" fill="none" xmlns="http://www.w3.org/2000/svg">
<path fill-rule="evenodd" clip-rule="evenodd" d="M20 10C20 10 16.25 3.125 10 3.125C3.75 3.125 0 10 0 10C0 10 3.75 16.875 10 16.875C16.25 16.875 20 10 20 10ZM1.46625 10C2.07065 10.9186 2.76581 11.7741 3.54125 12.5538C5.15 14.165 7.35 15.625 10 15.625C12.65 15.625 14.8488 14.165 16.46 12.5538C17.2354 11.7741 17.9306 10.9186 18.535 10C17.9306 9.0814 17.2354 8.22586 16.46 7.44625C14.8488 5.835 12.6487 4.375 10 4.375C7.35 4.375 5.15125 5.835 3.54 7.44625C2.76455 8.22586 2.06939 9.0814 1.465 10H1.46625Z" fill="#27214D"/>
<path fill-rule="evenodd" clip-rule="evenodd" d="M10 6.875C9.1712 6.875 8.37634 7.20424 7.79029 7.79029C7.20424 8.37634 6.875 9.1712 6.875 10C6.875 10.8288 7.20424 11.6237 7.79029 12.2097C8.37634 12.7958 9.1712 13.125 10 13.125C10.8288 13.125 11.6237 12.7958 12.2097 12.2097C12.7958 11.6237 13.125 10.8288 13.125 10C13.125 9.1712 12.7958 8.37634 12.2097 7.79029C11.6237 7.20424 10.8288 6.875 10 6.875ZM5.625 10C5.625 8.83968 6.08594 7.72688 6.90641 6.90641C7.72688 6.08594 8.83968 5.625 10 5.625C11.1603 5.625 12.2731 6.08594 13.0936 6.90641C13.9141 7.72688 14.375 8.83968 14.375 10C14.375 11.1603 13.9141 12.2731 13.0936 13.0936C12.2731 13.9141 11.1603 14.375 10 14.375C8.83968 14.375 7.72688 13.9141 6.90641 13.0936C6.08594 12.2731 5.625 11.1603 5.625 10Z" fill="black"/>
</svg>
