<svg width="12" height="12" viewBox="0 0 12 12" fill="none" xmlns="http://www.w3.org/2000/svg">
<path fill-rule="evenodd" clip-rule="evenodd" d="M9.1245 6.705C9.522 5.90025 9.75 5.1465 9.75 4.5C9.75 3.50544 9.35491 2.55161 8.65165 1.84835C7.94839 1.14509 6.99456 0.75 6 0.75C5.00544 0.75 4.05161 1.14509 3.34835 1.84835C2.64509 2.55161 2.25 3.50544 2.25 4.5C2.25 5.1465 2.47875 5.90025 2.8755 6.705C3.2685 7.5015 3.801 8.295 4.3455 9.0075C4.86201 9.67922 5.41431 10.3227 6 10.935L6.156 10.77C6.68399 10.2073 7.18409 9.61912 7.6545 9.0075C8.199 8.295 8.7315 7.5015 9.1245 6.705ZM6 12C6 12 10.5 7.7355 10.5 4.5C10.5 3.30653 10.0259 2.16193 9.18198 1.31802C8.33807 0.474106 7.19347 0 6 0C4.80653 0 3.66193 0.474106 2.81802 1.31802C1.97411 2.16193 1.5 3.30653 1.5 4.5C1.5 7.7355 6 12 6 12Z" fill="#27214D"/>
<path fill-rule="evenodd" clip-rule="evenodd" d="M6 6C6.39782 6 6.77936 5.84196 7.06066 5.56066C7.34196 5.27936 7.5 4.89782 7.5 4.5C7.5 4.10218 7.34196 3.72064 7.06066 3.43934C6.77936 3.15804 6.39782 3 6 3C5.60218 3 5.22064 3.15804 4.93934 3.43934C4.65804 3.72064 4.5 4.10218 4.5 4.5C4.5 4.89782 4.65804 5.27936 4.93934 5.56066C5.22064 5.84196 5.60218 6 6 6V6ZM6 6.75C6.59674 6.75 7.16903 6.51295 7.59099 6.09099C8.01295 5.66903 8.25 5.09674 8.25 4.5C8.25 3.90326 8.01295 3.33097 7.59099 2.90901C7.16903 2.48705 6.59674 2.25 6 2.25C5.40326 2.25 4.83097 2.48705 4.40901 2.90901C3.98705 3.33097 3.75 3.90326 3.75 4.5C3.75 5.09674 3.98705 5.66903 4.40901 6.09099C4.83097 6.51295 5.40326 6.75 6 6.75V6.75Z" fill="black"/>
</svg>
