<svg width="25" height="25" viewBox="0 0 25 25" fill="none" xmlns="http://www.w3.org/2000/svg">
<path fill-rule="evenodd" clip-rule="evenodd" d="M17.9688 12.5H7.03125C6.61685 12.5 6.21942 12.6646 5.9264 12.9576C5.63337 13.2507 5.46875 13.6481 5.46875 14.0625V21.875C5.46875 22.2894 5.63337 22.6868 5.9264 22.9799C6.21942 23.2729 6.61685 23.4375 7.03125 23.4375H17.9688C18.3832 23.4375 18.7806 23.2729 19.0736 22.9799C19.3666 22.6868 19.5312 22.2894 19.5312 21.875V14.0625C19.5312 13.6481 19.3666 13.2507 19.0736 12.9576C18.7806 12.6646 18.3832 12.5 17.9688 12.5ZM7.03125 10.9375C6.20245 10.9375 5.40759 11.2667 4.82154 11.8528C4.23549 12.4388 3.90625 13.2337 3.90625 14.0625V21.875C3.90625 22.7038 4.23549 23.4987 4.82154 24.0847C5.40759 24.6708 6.20245 25 7.03125 25H17.9688C18.7976 25 19.5924 24.6708 20.1785 24.0847C20.7645 23.4987 21.0938 22.7038 21.0938 21.875V14.0625C21.0938 13.2337 20.7645 12.4388 20.1785 11.8528C19.5924 11.2667 18.7976 10.9375 17.9688 10.9375H7.03125ZM7.03125 6.25C7.03125 4.7996 7.60742 3.4086 8.63301 2.38301C9.6586 1.35742 11.0496 0.78125 12.5 0.78125C13.9504 0.78125 15.3414 1.35742 16.367 2.38301C17.3926 3.4086 17.9687 4.7996 17.9688 6.25V10.9375H16.4062V6.25C16.4062 5.214 15.9947 4.22043 15.2621 3.48786C14.5296 2.7553 13.536 2.34375 12.5 2.34375C11.464 2.34375 10.4704 2.7553 9.73786 3.48786C9.0053 4.22043 8.59375 5.214 8.59375 6.25V10.9375H7.03125V6.25Z" fill="#434245"/>
</svg>
