<svg width="18" height="18" viewBox="0 0 18 18" fill="none" xmlns="http://www.w3.org/2000/svg">
<g clip-path="url(#clip0_5004_11773)">
<path fill-rule="evenodd" clip-rule="evenodd" d="M9 16.875C11.0886 16.875 13.0916 16.0453 14.5685 14.5685C16.0453 13.0916 16.875 11.0886 16.875 9C16.875 6.91142 16.0453 4.90838 14.5685 3.43153C13.0916 1.95469 11.0886 1.125 9 1.125C6.91142 1.125 4.90838 1.95469 3.43153 3.43153C1.95469 4.90838 1.125 6.91142 1.125 9C1.125 11.0886 1.95469 13.0916 3.43153 14.5685C4.90838 16.0453 6.91142 16.875 9 16.875V16.875ZM9 18C11.3869 18 13.6761 17.0518 15.364 15.364C17.0518 13.6761 18 11.3869 18 9C18 6.61305 17.0518 4.32387 15.364 2.63604C13.6761 0.948212 11.3869 0 9 0C6.61305 0 4.32387 0.948212 2.63604 2.63604C0.948212 4.32387 0 6.61305 0 9C0 11.3869 0.948212 13.6761 2.63604 15.364C4.32387 17.0518 6.61305 18 9 18V18Z" fill="#8E8E8F"/>
<path d="M5.9104 6.50925C5.90886 6.54558 5.91476 6.58184 5.92776 6.61581C5.94075 6.64977 5.96055 6.68072 5.98595 6.70674C6.01134 6.73277 6.04179 6.75333 6.07542 6.76715C6.10906 6.78097 6.14516 6.78777 6.18152 6.78713H7.10965C7.2649 6.78713 7.38865 6.66 7.4089 6.50588C7.51015 5.76788 8.0164 5.23013 8.91864 5.23013C9.69039 5.23013 10.3969 5.616 10.3969 6.54413C10.3969 7.2585 9.97614 7.587 9.31127 8.0865C8.55414 8.63663 7.95452 9.279 7.99727 10.3219L8.00065 10.566C8.00183 10.6398 8.03198 10.7102 8.0846 10.762C8.13721 10.8137 8.20808 10.8428 8.2819 10.8428H9.19427C9.26886 10.8428 9.3404 10.8131 9.39314 10.7604C9.44589 10.7076 9.47552 10.6361 9.47552 10.5615V10.4434C9.47552 9.63563 9.78264 9.4005 10.6118 8.77163C11.2969 8.25075 12.0113 7.6725 12.0113 6.45863C12.0113 4.75875 10.5758 3.9375 9.00415 3.9375C7.57877 3.9375 6.01727 4.60125 5.9104 6.50925V6.50925ZM7.66202 12.9926C7.66202 13.5923 8.14015 14.0355 8.79827 14.0355C9.4834 14.0355 9.95477 13.5923 9.95477 12.9926C9.95477 12.3716 9.48227 11.9351 8.79715 11.9351C8.14015 11.9351 7.66202 12.3716 7.66202 12.9926Z" fill="#8E8E8F"/>
</g>
<defs>
<clipPath id="clip0_5004_11773">
<rect width="18" height="18" fill="white"/>
</clipPath>
</defs>
</svg>
