<svg width="20" height="20" viewBox="0 0 20 20" fill="none" xmlns="http://www.w3.org/2000/svg">
<path fill-rule="evenodd" clip-rule="evenodd" d="M5.80862 5.8074C5.86667 5.74919 5.93564 5.70301 6.01157 5.67151C6.08751 5.64 6.16891 5.62378 6.25112 5.62378C6.33333 5.62378 6.41473 5.64 6.49066 5.67151C6.56659 5.70301 6.63556 5.74919 6.69362 5.8074L10.0011 9.11615L13.3086 5.8074C13.3667 5.74929 13.4357 5.70319 13.5116 5.67174C13.5876 5.64029 13.6689 5.62411 13.7511 5.62411C13.8333 5.62411 13.9147 5.64029 13.9906 5.67174C14.0665 5.70319 14.1355 5.74929 14.1936 5.8074C14.2517 5.86551 14.2978 5.93449 14.3293 6.01042C14.3607 6.08634 14.3769 6.16772 14.3769 6.2499C14.3769 6.33208 14.3607 6.41345 14.3293 6.48938C14.2978 6.5653 14.2517 6.63429 14.1936 6.6924L10.8849 9.9999L14.1936 13.3074C14.2517 13.3655 14.2978 13.4345 14.3293 13.5104C14.3607 13.5863 14.3769 13.6677 14.3769 13.7499C14.3769 13.8321 14.3607 13.9135 14.3293 13.9894C14.2978 14.0653 14.2517 14.1343 14.1936 14.1924C14.1355 14.2505 14.0665 14.2966 13.9906 14.328C13.9147 14.3595 13.8333 14.3757 13.7511 14.3757C13.6689 14.3757 13.5876 14.3595 13.5116 14.328C13.4357 14.2966 13.3667 14.2505 13.3086 14.1924L10.0011 10.8836L6.69362 14.1924C6.63551 14.2505 6.56652 14.2966 6.4906 14.328C6.41467 14.3595 6.3333 14.3757 6.25112 14.3757C6.16894 14.3757 6.08756 14.3595 6.01164 14.328C5.93571 14.2966 5.86673 14.2505 5.80862 14.1924C5.75051 14.1343 5.70441 14.0653 5.67296 13.9894C5.64151 13.9135 5.62533 13.8321 5.62533 13.7499C5.62533 13.6677 5.64151 13.5863 5.67296 13.5104C5.70441 13.4345 5.75051 13.3655 5.80862 13.3074L9.11737 9.9999L5.80862 6.6924C5.75041 6.63434 5.70423 6.56537 5.67273 6.48944C5.64122 6.41351 5.625 6.33211 5.625 6.2499C5.625 6.16769 5.64122 6.08629 5.67273 6.01035C5.70423 5.93442 5.75041 5.86545 5.80862 5.8074Z" fill="#D32F2F"/>
</svg>
